<svg xmlns="http://www.w3.org/2000/svg" xmlns:xlink="http://www.w3.org/1999/xlink" width="600" height="660" fill="#e20909" stroke="#000" stroke-width="3"><radialGradient id="G" cx="221" cy="226" r="300" gradientTransform="matrix(1.35,0,0,1.35,-77,-85)" gradientUnits="userSpaceOnUse"><stop offset="0" stop-color="#fff" stop-opacity=".3"/><stop offset=".2" stop-color="#fff" stop-opacity=".25"/><stop offset=".6" stop-color="#666" stop-opacity=".13"/><stop offset="1" stop-opacity=".13"/></radialGradient><path id="S" d="M1.5 1.5h597V280A570 445 0 0 1 300 658.5 570 445 0 0 1 1.5 280Z"/><g fill="#fcef3c" transform="matrix(1.08,0,0,1.08,-24,-15)"><path d="M321 68h-42c0 19-16 35-35 35-14-1-22-7-31-18l-25 13c40 38 67 88 76 144-56-9-106-36-144-76l-13 25c11 9 17 17 18 31 0 19-16 35-35 35v42c19 0 35 16 35 35-1 14-7 22-18 31l13 25c38-40 88-67 144-76-9 56-36 106-76 144l25 13c9-11 17-17 31-18 19 0 35 16 35 35h42c0-19 16-35 35-35 14 1 22 7 31 18l25-13c-40-38-67-88-76-144 56 9 106 36 144 76l13-25c-11-9-17-17-18-31 0-19 16-35 35-35v-42c-19 0-35-16-35-35 1-14 7-22 18-31l-13-25c-38 40-88 67-144 76 9-56 36-106 76-144l-25-13c-9 11-17 17-31 18-19 0-35-16-35-35Zm-21 20c8 22 28 38 53 39-28 42-45 91-46 144 53-1 102-18 144-46 1 25 17 45 39 53-22 8-38 28-39 53-42-28-91-45-144-46 1 53 18 102 46 144-25 1-45 17-53 39-8-22-28-38-53-39 28-42 45-91 46-144-53 1-102 18-144 46-1-25-17-45-39-53 22-8 38-28 39-53 42 28 91 45 144 46-1-53-18-102-46-144 25-1 45-17 53-39Z"/><g id="A"><g id="B"><circle id="C" cx="300" cy="71.5" r="23.5"/><use xlink:href="#C" x="-103.2" y="27.5"/><use xlink:href="#C" x="103.2" y="27.5"/></g><use xlink:href="#B" transform="scale(1,-1)" y="-556"/></g><use xlink:href="#A" transform="rotate(-90,300,278)"/></g><use xlink:href="#S" fill="url(#G)"/></svg>